<?xml version="1.0" encoding="UTF-8"?>
<svg xmlns="http://www.w3.org/2000/svg" viewBox="0 0 1095 1095" width="1095" height="1095">
<path d="M720.5 183C728.72 186.22 735.98 192.32 743.03 197.47C746.92 200.3 751.14 202.63 755.03 205.47C761.04 209.85 767.66 213.91 773.97 217.53C779.2 220.54 784.11 224.95 789.03 228.47C791.8 230.45 795.2 231.51 797.97 233.53C808.07 240.9 818.83 247.29 828.97 254.53C833.9 258.05 838.85 261.25 843.97 264.53C846.4 266.09 848.43 268.15 851 269.5C848.7 273.88 842.21 276.79 838.03 279.53C829.6 285.06 821.49 290.99 813.03 296.53C806.82 300.6 800.95 305.1 794.97 309.47C791.84 311.75 788.17 313.29 785.03 315.53C779.99 319.13 774.97 322.82 769.97 326.47C767.81 328.05 765.2 328.98 763.03 330.53C756.64 335.09 750.32 339.84 743.97 344.47C741.81 346.05 739.2 346.98 737.03 348.53C731.81 352.26 726.93 356.59 721.5 360C721.12 359.49 720.47 359.2 720.38 358.5C720.19 357.23 723.39 347.41 723.81 345.31C725.15 338.64 726.53 331.96 727.81 325.31C728.22 323.18 727.52 320.76 728.19 318.69C728.5 317.73 729.46 317.25 729.81 316.31C731.41 312.11 732.12 306.9 733 302.5C719.92 299.69 701.71 299.9 688.47 301.97C683.21 302.79 677.79 302.21 672.53 303.03C670.15 303.4 667.85 304.6 665.47 304.97C663.85 305.22 662.15 304.78 660.53 305.03C628.76 310.01 593.08 324.41 566.97 343.47C564.44 345.31 561.56 346.69 559.03 348.53C557.14 349.91 555.86 352.09 553.97 353.47C547.87 357.92 539.02 365.88 534.53 372.03C528.46 380.35 522.14 388.29 516.53 397.03C512.71 402.99 509.85 409.63 506.16 415.66C502.38 421.82 499.43 431.46 496.81 438.31C495.35 442.15 493.49 445.79 492.19 449.69C491.26 452.46 491.09 455.69 489.81 458.31C489.38 459.2 488.54 459.76 488.19 460.69C485.41 467.97 483.61 475.68 480.19 482.69C478.42 486.3 478.23 490.58 476.81 494.31C470.08 511.97 458.32 530.27 442.97 541.47C429.32 551.43 413.09 557.37 396.47 559.97C393.3 560.46 389.7 560 386.5 560C356.04 560 325.01 543.06 313.81 513.69C310.88 506.01 307.09 497.85 307 489.5C309.09 490.26 309.27 491.99 310.53 493.97C313.49 498.58 317.21 505.59 321.5 509C343.24 526.27 364.29 535.9 392.31 527.81C394.66 527.13 396.73 525.39 399 524.5C415.71 517.96 426.31 498.82 432.5 483C434.45 478.03 436.91 473.3 438.81 468.31C443.61 455.72 446.38 442.29 451.19 429.69C458.24 411.19 465.26 392.22 475.84 375.34C477.55 372.62 478.45 369.38 480.16 366.66C491.73 348.21 505.5 332 521 316.5C526.13 311.37 531.2 305.78 537.03 301.53C552.41 290.31 568.18 280.23 585.34 271.84C589.76 269.69 594.1 266.94 598.69 265.19C607.74 261.73 620.48 256.1 629.69 254.19C633.56 253.38 637.5 252.91 641.31 251.81C642.5 251.47 643.49 250.48 644.69 250.19C648.83 249.16 653.13 248.68 657.31 247.81C658.78 247.51 660.22 246.48 661.69 246.19C663.92 245.74 666.23 246.32 668.47 245.97C671.81 245.44 675.19 244.56 678.53 244.03C680.48 243.73 682.52 244.27 684.47 243.97C686.85 243.6 689.15 242.4 691.53 242.03C694.13 241.62 696.87 242.38 699.47 241.97C705.47 241.03 711.62 241.88 717.47 240.97C722.49 240.18 727.29 240 732.5 240C732.5 233.84 729.46 227.43 728.19 221.31C726.62 213.77 725.32 206.24 723.81 198.69C722.83 193.78 719.57 187.92 720.5 183ZM399.5 337C399.5 340.51 398.45 345.95 396.81 349.31C396.38 350.2 395.54 350.76 395.19 351.69C391.92 360.27 390.64 369.71 386.5 378C382.19 377.71 378.01 376.33 373.53 377.03C365.54 378.28 357.6 379.23 349.69 381.19C347.44 381.74 345.46 382.99 343.31 383.81C322.92 391.59 306.3 404.16 293.53 422.03C290.05 426.9 285.34 436.04 283.19 441.69C282.26 444.11 281.95 446.98 280.81 449.31C280.38 450.2 279.54 450.76 279.19 451.69C276.71 458.2 277.03 465.69 275.97 472.47C274.02 484.89 276.01 493.56 277.97 505.53C278.39 508.09 278.25 510.84 279.19 513.31C279.54 514.24 280.38 514.8 280.81 515.69C281.67 517.43 281.66 519.49 282.19 521.31C283.62 526.28 289.48 537.7 292.53 541.97C306.44 561.44 324.34 575.29 346.69 583.81C353.17 586.29 360.74 587.91 367.53 588.97C369.11 589.22 370.72 588.88 372.31 589.19C387.51 592.11 403.92 589.14 418.69 586.19C423.08 585.31 428.07 585.23 432.31 583.81C433.27 583.49 433.75 582.55 434.69 582.19C437.97 580.94 441.89 580.66 445.31 579.81C448.94 578.92 452.82 577.15 456.31 575.81C467.89 571.4 479.19 565.72 489.66 559.16C491.94 557.72 494.77 557.04 496.97 555.47C499.68 553.53 502.22 551.37 505.03 549.53C510.07 546.23 515.32 543.3 520 539.5C520 534.02 518.87 528.8 518.03 523.47C517.42 519.57 518.58 515.43 517.97 511.53C517.74 510.1 517.13 508.98 517 507.5C516.65 503.6 517.39 500.17 517.97 496.47C518.53 492.9 517.47 489.1 518.03 485.53C519.77 474.44 522.05 463.56 525.19 452.69C527.59 444.37 532.34 435.69 536.84 428.34C537.68 426.98 537.82 425.42 538.53 424.03C540.06 421.04 542.53 417.77 544.53 415.03C548.99 408.92 554.3 403.42 559 397.5C560.56 395.53 562.61 394.5 564.5 393C568.95 389.47 572.44 384.88 577.03 381.53C584.9 375.79 593.07 371.03 601.34 365.84C614.34 357.7 629.49 350.47 644.31 346.81C647.84 345.94 651.16 344.06 654.69 343.19C665.6 340.5 677.2 337 688.5 337C687.31 343.42 686.05 350.04 685.03 356.53C684.68 358.8 685.32 361.2 684.97 363.47C684.31 367.67 683.34 372.06 684.03 376.47C684.26 377.9 684.87 379.02 685 380.5C685.33 384.1 684.47 387.9 685.03 391.47C685.81 396.44 686.19 401.56 686.97 406.53C687.58 410.43 686.42 414.57 687.03 418.47C688.05 424.96 689.02 432.77 687.97 439.47C685.96 452.28 685.46 464.67 681.81 477.31C681.27 479.21 679.73 480.79 679.19 482.69C671.5 509.33 651.96 530.76 629.97 546.47C624.49 550.38 617.7 553.13 611.66 556.16C599.02 562.48 585.19 566.3 571.53 569.03C566.32 570.07 561.36 571.57 556 570.5C562.29 564.21 570.27 558.09 575.47 550.97C578.64 546.62 581.58 540.78 586.03 537.53C590.65 534.16 596.13 532.57 600.97 529.47C613.4 521.5 625.73 512.21 634.47 499.97C645.28 484.83 651.15 466.44 653.97 448.47C655.06 441.52 654 433.55 654 426.5C654 418.08 654.31 409.66 653.03 401.47C651.93 394.43 653.9 386.99 652.5 380C648.43 380.27 645.09 382.37 641.31 383.81C632.73 387.08 623.54 390.1 615.66 395.16C614.67 395.79 613.97 396.9 612.97 397.47C589.06 411.19 568.78 432.18 558.81 458.31C557.37 462.09 555.16 465.75 554.19 469.69C552.98 474.59 551.81 479.58 551.03 484.53C550.78 486.15 551.22 487.85 550.97 489.47C550.64 491.55 549.36 493.45 549.03 495.53C548.14 501.22 549 507.73 549 513.5C552.48 513.14 555.59 509.23 558 506.5C560.33 503.86 563.69 502.12 566 499.5C568.64 496.51 570.81 492.99 573.53 490.03C574.53 488.95 576 488.64 577 487.5C578.71 485.56 580.01 483.12 581.53 481.03C584.16 477.42 587.84 474.58 590.47 470.97C594.67 465.21 599.33 459.77 603.47 453.97C607.92 447.74 612.02 441.2 616.47 434.97C619.43 430.82 621.27 425.98 624.5 422C625.35 428.3 620.44 435.79 618.19 441.69C609.31 464.98 598.95 485.1 585.53 506.03C580.32 514.17 575.15 522.18 569.47 529.97C565.22 535.79 558.69 541.33 554.53 547.03C550.22 552.94 540.9 563.14 534.97 567.47C527.7 572.77 521.25 579.16 513.97 584.47C507.91 588.89 501.11 592.19 495.03 596.53C491.19 599.28 487.2 602.3 482.97 604.47C475.42 608.33 467.32 612.76 459.31 615.81C455.91 617.11 451.91 617.61 448.69 619.19C440.3 623.28 430.87 625.35 421.69 627.19C415.6 628.41 409.61 630.01 403.47 630.97C400.22 631.48 396.78 630.52 393.53 631.03C386.67 632.11 380.33 632.11 373.47 631.03C370.22 630.52 366.78 631.48 363.53 630.97C352.88 629.3 342.47 627.06 332.31 623.19C330.47 622.48 328.55 622.35 326.69 621.81C324.34 621.13 322.27 619.39 320 618.5C311.82 615.3 303.19 610.58 296.03 605.47C271.8 588.16 252.81 563.16 242.19 535.31C238.86 526.57 235.47 512.65 234.03 503.47C233.68 501.2 234.32 498.8 233.97 496.53C232.82 489.19 231.85 480.08 233.03 472.53C236.38 451.13 240.5 431.63 250.53 412.03C252.7 407.79 255.86 403.94 258.47 399.97C264.32 391.04 271.09 382.63 279 375.5C281.41 373.33 283.41 370.44 286.03 368.53C298.5 359.44 310.81 351.34 325.31 345.81C327.15 345.11 328.8 343.73 330.69 343.19C338.85 340.83 347.18 338.34 355.53 337.03C358.45 336.57 361.55 337.43 364.47 336.97C366.85 336.6 369.15 335.4 371.53 335.03C376.11 334.31 382.89 334.31 387.47 335.03C391.69 335.69 395.07 337 399.5 337ZM281.01 698C288.17 698 295.34 698 302.5 698C304.47 707.85 303 719.39 303 729.5C303 733.76 301.83 739.56 304.5 743C307.59 739.91 310.75 737.11 314.69 735.19C318.18 733.48 321.78 733.55 325.47 732.97C337.9 731.02 348.9 734.08 359.03 741.47C361.31 743.13 363.74 744.66 365.47 747.03C373.37 757.85 376 766.99 376 780.5C376 783.06 376.37 785.94 375.97 788.47C372.64 809.74 359.95 823.53 338.53 827.03C332.52 828.01 326.72 828.25 320.69 826.81C317.12 825.96 312.05 823.63 309.03 821.47C306.37 819.57 305.09 817.24 302.07 816C302.07 819.32 302.07 822.64 302.07 825.97C295.05 825.97 288.03 825.97 281.01 825.97C281.01 783.31 281.01 740.66 281.01 698ZM732.99 698C732.99 740.65 732.99 783.29 732.99 825.94C725.66 825.94 718.33 825.94 711 825.94C708.34 819.15 710 797.03 710 788.5C710 768.83 710 749.17 710 729.5C710 719.7 708.59 708.55 710.5 699C715.64 696.55 726.92 698 732.99 698ZM84.5 705.03C91.67 705.03 98.83 705.03 106 705.03C108.51 711.5 107 720.54 107 727.5C107 743.5 107 759.5 107 775.5C107 785.77 109.05 796.06 118.03 802.47C119.95 803.84 122.29 804.2 124.31 805.19C125.54 805.79 126.13 806.69 127.53 806.97C140.87 809.64 158.28 803.61 161.81 789.31C162.8 785.32 162.4 781.55 163.03 777.53C163.71 773.23 164.41 769.01 164 764.5C163.81 762.39 162.88 760.68 163 758.5C163.93 741.02 164 723.02 164 705.03C171.17 705.03 178.33 705.03 185.5 705.03C186.5 709.97 186 715.41 186 720.5C186 729.83 186 739.17 186 748.5C186 769.45 189.24 793.09 176.47 810.97C173.84 814.64 170.03 816.53 166.69 819.19C163.13 822.02 158.85 824.5 154.31 825.81C148.7 827.43 142.27 828.51 136.5 829C132.44 829.35 126.48 827.83 122.47 827.03C117.67 826.07 113.46 824.73 109 822.5C77.56 806.78 84 771.21 84 741.5C84 730.61 82.42 715.31 84.5 705.03ZM607.01 705C635.76 705 664.5 705 693.25 705C693.25 711.17 693.25 717.33 693.25 723.5C691.13 726.46 681.67 725 677.5 725C661.67 725 645.85 725 630.02 725C630.02 736.33 630.02 747.67 630.02 759C648.68 759 667.34 759 686 759C688.34 765.12 687 773.41 687 779.99C668.01 779.99 649.01 779.99 630.02 779.99C630.02 795.32 630.02 810.64 630.02 825.97C622.35 825.97 614.68 825.97 607.01 825.97C607.01 785.65 607.01 745.32 607.01 705ZM265.97 733C265.97 739.83 265.97 746.67 265.97 753.5C258.89 754.93 251.4 752.98 245.03 757.53C235.51 764.33 235 775.94 235 786.5C235 799.66 235 812.81 235 825.97C227.34 825.97 219.68 825.97 212.02 825.97C212.02 795.31 212.02 764.66 212.02 734C217.72 731.8 227.18 732.24 233 734C233 737.67 233 741.33 233 745C243.93 736.8 251.21 730.64 265.97 733ZM470 825.97C463 825.97 456 825.97 449 825.97C449 823.31 449 820.66 449 818C442.58 822.82 436.68 826.68 428.47 827.97C423.85 828.69 418.88 827.91 414.47 827.03C400.47 824.23 390.38 817.47 388.03 802.47C387.54 799.35 388.11 796.24 388.81 793.31C392.59 777.47 404.95 773.31 419.53 771.03C428.84 769.57 438.77 772.35 448 770.5C447.85 756.54 439.19 752 426.5 752C422.07 752 417.92 751.96 413.69 753.19C408.21 754.77 404.05 758.02 399.5 761C396.61 755.23 392.44 750.15 392 743.5C393.79 742.56 394.99 741.23 396.66 740.16C402.03 736.71 409.33 734 415.53 733.03C417.48 732.73 419.52 733.27 421.47 732.97C426.21 732.23 429.92 731.89 434.69 732.81C436.6 733.18 438.56 732.73 440.47 733.03C446.91 734.04 452.69 736.68 457.97 740.53C463.56 744.61 467.56 752.21 468.81 758.69C469.17 760.55 468.83 762.45 469.19 764.31C470.62 771.76 470 779.81 470 787.5C470 800.32 470 813.14 470 825.97ZM582 825.97C574.5 825.97 567 825.97 559.5 825.97C558.62 821.64 559 816.97 559 812.5C559 799.26 560.7 781.9 558.19 769.31C556.65 761.63 553.28 754.41 544.47 753.03C541.76 752.61 538.23 752.75 535.5 753C510.23 755.3 516 793.3 516 810.5C516 815.66 516 820.81 516 825.97C508.67 825.97 501.34 825.97 494.02 825.97C494.02 795.31 494.02 764.66 494.02 734C499.89 731.74 508.71 732.59 514.92 733.5C514.92 737 514.92 740.5 514.92 744C521.32 739.39 525.29 735.42 533.31 733.81C538.48 732.78 543.55 731.82 548.69 732.81C552.88 733.62 557.34 733.25 561.31 735.19C582.51 745.54 582 767.21 582 787.5C582 800.32 582 813.15 582 825.97ZM795.69 732.19C799.24 731.5 802.13 732.69 805.5 733C839.18 736.06 852.28 767.05 844.81 797.31C844.39 799.04 842.93 800.17 842.19 801.69C834.25 817.93 820.88 825.24 803.47 827.97C799.35 828.61 795.38 827.64 791.47 827.03C789.89 826.78 788.28 827.13 786.69 826.81C783.19 826.11 776.13 823.25 773.03 821.47C749.02 807.69 745.57 774.63 758.53 752.03C762.13 745.76 775.69 735.91 782.69 734.19C786.94 733.14 791.43 733.01 795.69 732.19ZM894.5 798C901.67 776.83 908.83 755.67 916 734.5C921.28 731.86 930.99 731.95 936.5 734C943.83 755.33 951.17 776.67 958.5 798C966 776.83 973.5 755.67 981 734.5C984.19 732.02 996.88 732.28 1000.5 734C1001.1 738.47 994.21 755.38 992.19 760.69C989.36 768.1 987 775.73 984.81 783.31C983.41 788.17 980.99 792.95 979.19 797.69C975.65 806.96 972.89 816.53 970 825.97C962.5 825.97 955 825.97 947.5 825.97C946.81 822.79 945.34 820.34 944.19 817.31C941.76 810.95 939.68 804.17 937.81 797.69C936.9 794.51 934.99 791.56 934.19 788.31C932.59 781.84 929.52 770.16 925.5 765C918.67 785.32 911.83 805.65 905 825.97C897.83 825.97 890.67 825.97 883.5 825.97C879.37 820.98 879.55 814.3 876.81 808.69C873.79 802.5 872.04 795.38 869.81 788.69C866.24 777.96 862.39 767.42 858.81 756.69C857.18 751.78 855.63 746.46 853.81 741.69C852.68 738.72 851.04 737.38 851.5 734C854.58 732.53 869.65 731.89 872 734.5C875.51 738.39 877.9 750.1 879.19 755.31C879.99 758.57 881.62 761.57 882.81 764.69C885.72 772.33 887.28 780.46 890.81 787.69C892.59 791.32 891.69 795.19 894.5 798ZM323.69 752.19C290.77 758.53 299.17 813.34 333.47 807.97C336.39 807.51 338.1 806.41 340.34 804.84C349.75 798.27 352.17 793.93 353.97 782.47C354.42 779.56 353.57 777.18 353.03 774.47C350.8 763.31 345.27 755.13 333.69 752.81C330.43 752.16 327.13 751.53 323.69 752.19ZM792.69 752.19C778.99 754.93 770.91 771.54 773.03 784.47C773.29 786.04 774.38 787.2 774.81 788.69C775.34 790.51 775.33 792.57 776.19 794.31C778.69 799.43 783.09 801.9 787.31 805.19C787.89 805.64 788.05 806.45 788.72 806.78C791.8 808.32 796.13 808 799.5 808C802.54 808 806.5 808.17 809.28 806.78C809.95 806.45 810.11 805.64 810.69 805.19C811.65 804.44 812.97 804.18 813.97 803.47C818.18 800.46 822.6 794.38 823.81 789.31C828.59 769.29 815.47 747.63 792.69 752.19ZM447 787.5C443.88 786.88 440.73 787 437.5 787C427.74 787 406.23 784.74 410.19 801.31C411.47 806.68 417.73 809.09 422.31 810.19C434.68 813.14 454.1 802.39 447 787.5ZM412.69 877.19C414.82 876.84 416.42 877.8 418.5 878C429.25 879.04 438.94 886.54 442.81 896.69C448.57 911.79 438.03 932.37 421.47 934.97C413.38 936.24 402.84 935.33 396.03 930.47C381.8 920.3 380.36 899.89 391 886.5C396.18 879.98 405.13 878.41 412.69 877.19ZM298.5 878C300.83 878 303.17 878 305.5 878C313.17 890.67 320.83 903.33 328.5 916C333.36 911.14 335.5 904.36 339.16 898.66C340.96 895.84 343.05 893.2 344.84 890.34C349.91 882.27 347.47 878 358.98 878C358.98 896.67 358.98 915.33 358.98 934C356.11 935.11 354 935.1 351 934.5C349.32 930.97 350 926.47 350 922.5C350 914.26 351.1 905.02 349.5 897C343.5 907 337.5 917 331.5 927C329.5 927 327.5 927 325.5 927C319.33 917 313.17 907 307 897C307 909.33 307 921.67 307 934C304.12 935.1 302.01 935.1 299 934.5C296.78 929.84 298 922.73 298 917.5C298 906.47 296.48 888.1 298.5 878ZM469.02 878C478.26 878 496.27 876.12 504.31 879.19C511.72 882.01 516.75 889.19 514.81 897.31C514.11 900.25 511.03 902.47 509 904.5C510.86 906.79 514.38 908.83 515.81 911.69C519.81 919.68 516.54 929.67 508.31 932.81C496.59 937.28 481.49 935 469.02 935C469.02 916 469.02 897 469.02 878ZM543.5 878.08C546 878.08 548.5 878.08 551 878.08C553.14 883.49 552 890.66 552 896.5C552 907.36 553.52 923.89 551.5 934C548.9 935.24 546.84 935.07 544 934.5C541.78 929.84 543 922.73 543 917.5C543 906.64 541.46 887.94 543.5 878.08ZM581.5 878.08C584 878.08 586.5 878.08 589 878.08C590.94 882.99 590 889.2 590 894.5C590 905.33 590 916.15 590 926.98C599.95 926.98 609.89 926.98 619.84 926.98C619.84 929.32 619.84 931.66 619.84 934C615.75 935.67 610.93 935 606.5 935C598.58 935 589.71 936.04 582 934.5C579.78 929.84 581 922.73 581 917.5C581 906.64 579.46 887.94 581.5 878.08ZM650.98 878.18C650.98 896.78 650.98 915.39 650.98 934C648.11 935.11 646 935.1 643 934.5C640.78 929.84 642 922.73 642 917.5C642 904.66 640.59 890.85 642.5 878.18C645.33 878.18 648.15 878.18 650.98 878.18ZM673.14 878C688.74 878 704.33 878 719.92 878C719.92 880.65 719.92 883.31 719.92 885.96C713.61 885.96 707.31 885.96 701 885.96C701 901.98 701 917.99 701 934C698.12 935.1 696.01 935.1 693 934.5C690.99 930.29 692 924.23 692 919.5C692 908.35 692 897.19 692 886.04C685.71 886.04 679.43 886.04 673.14 886.04C673.14 883.36 673.14 880.68 673.14 878ZM734.5 878C737.17 878 739.83 878 742.5 878C748.33 887.17 754.17 896.33 760 905.5C762.63 904.55 762.87 901.36 764.53 899.03C769.19 892.51 773.57 885.29 777.5 878.07C780.33 878.07 783.17 878.07 786 878.07C783.76 884.93 778.74 889.75 775.53 896.03C773.98 899.06 772.36 902.01 770.47 904.97C768.64 907.82 765.22 911.51 764.19 914.69C762.87 918.74 764 930.12 764 934.92C761.5 934.92 759 934.92 756.5 934.92C755.22 928.74 757.28 921.84 755.81 915.69C754.85 911.64 750.74 907.41 748.53 903.97C745.11 898.63 742.19 893 738.84 887.66C736.79 884.39 733.96 881.97 734.5 878ZM413.69 885.19C406.19 885.96 399.37 889.1 395.22 895.72C394.24 897.28 394.23 899.58 393.81 901.31C390.1 916.88 402.68 929.44 418.47 926.97C440.67 923.49 440.43 890.55 417.53 885.97C416.11 885.68 415.18 885.03 413.69 885.19ZM478.08 886C478.08 891.33 478.08 896.67 478.08 902C485.1 902 506.68 904.98 506 893.5C505.36 882.64 485.61 886 478.08 886ZM478.08 910C478.08 915.67 478.08 921.33 478.08 927C485.74 927 509 930.48 509 918.5C509 906.68 485.69 910 478.08 910Z" fill="#ffffff" fill-rule="evenodd" stroke="#ffffff" stroke-width="0.25" stroke-linejoin="round"/>
</svg>